<?xml version="1.0" encoding="utf-8"?>
<svg viewBox="0 0 164.807 208.7736" xmlns="http://www.w3.org/2000/svg" xmlns:xlink="http://www.w3.org/1999/xlink">
    <linearGradient x1="0" y1="0" x2="1" y2="0" id="apache-maven-icon-gradient-20" gradientUnits="userSpaceOnUse" gradientTransform="matrix(1, 0, 0, 1, 294.849922, 114.583801)" xlink:href="#apache-maven-icon-gradient-11392"/>
    <g transform="matrix(1, 0, 0, 1, 2.842170943040401e-14, 0)">
        <text id="text11870" style="font-style: italic; font-variant: normal; font-weight: bold; font-stretch: normal; font-size: 14px; line-height: 0%; font-family: 'Alte Haas Grotesk'; letter-spacing: 0px; word-spacing: 0px; fill: url('#apache-maven-icon-gradient-20'); fill-opacity: 1; stroke: none; white-space: pre;" y="196.188" x="199.613"><tspan x="199.613" y="196.188" style="fill: url('#apache-maven-icon-gradient-20'); fill-opacity: 1; font-size: 14px; word-spacing: 0px;"/></text>
        <text fill="currentColor" x="199.613" y="196.188" id="text-1" style="font-style: italic; font-variant: normal; font-weight: bold; font-stretch: normal; font-size: 14px; line-height: 0%; font-family: 'Alte Haas Grotesk'; letter-spacing: 0px; word-spacing: 0px; fill: url('#apache-maven-icon-gradient-20'); fill-opacity: 1; stroke: none; white-space: pre;"><tspan style="font-size: 14px; word-spacing: 0px;"/></text>
        <path d="M 27.367 10.901 C 24.532 12.588 19.808 17.313 14.205 24.164 L 19.369 33.917 C 22.98 28.72 26.692 24.063 30.405 20.08 C 30.675 19.777 30.843 19.608 30.843 19.608 C 30.708 19.777 30.54 19.912 30.405 20.08 C 29.19 21.397 25.545 25.649 20.044 34.12 C 25.342 33.85 33.476 32.77 40.124 31.622 C 42.115 20.553 38.201 15.491 38.201 15.491 C 38.201 15.491 33.206 7.425 27.367 10.901 Z" fill="currentColor" style="transform-box: fill-box; transform-origin: 50% 50%;" transform="matrix(0.80617, -0.591684, 0.591684, 0.80617, -0.000002, 0.000006)"/>
        <path d="M 46.691 63.336 C 46.724 63.336 46.758 63.336 46.792 63.303 L 46.049 63.37 C 46.016 63.404 45.948 63.404 45.914 63.438 C 46.184 63.404 46.454 63.37 46.691 63.336 Z" style="fill: none; transform-box: fill-box; transform-origin: 50% 50%;" transform="matrix(0.80617, -0.591684, 0.591684, 0.80617, 0.000007, 0.000004)"/>
        <path d="M 52.879 80.681 C 52.474 80.782 52.035 80.85 51.596 80.917 C 52.035 80.85 52.474 80.782 52.879 80.681 Z" style="fill: none; transform-box: fill-box; transform-origin: 50% 50%;" transform="matrix(0.80617, -0.591684, 0.591684, 0.80617, 0.000006, 0.000003)"/>
        <path d="M 31.53 132.108 C 31.597 131.973 31.631 131.805 31.699 131.67 C 32.846 128.666 33.96 125.764 35.074 122.895 C 36.322 119.723 37.571 116.618 38.786 113.614 C 40.068 110.475 41.351 107.404 42.6 104.468 C 43.916 101.363 45.198 98.393 46.481 95.525 C 47.527 93.196 48.539 90.935 49.552 88.741 C 49.889 87.999 50.227 87.29 50.564 86.581 C 51.239 85.164 51.88 83.78 52.522 82.43 C 53.129 81.182 53.703 79.967 54.277 78.752 C 54.479 78.347 54.682 77.942 54.85 77.57 C 54.884 77.503 54.918 77.435 54.952 77.368 L 54.31 77.435 L 53.804 76.457 C 53.77 76.558 53.703 76.659 53.669 76.761 C 52.758 78.549 51.847 80.372 50.969 82.228 C 50.463 83.274 49.957 84.354 49.417 85.434 C 47.999 88.404 46.616 91.374 45.266 94.411 C 43.882 97.448 42.532 100.52 41.216 103.557 C 39.9 106.561 38.651 109.564 37.402 112.568 C 36.154 115.572 34.939 118.541 33.757 121.511 C 32.509 124.616 31.294 127.687 30.146 130.725 C 29.876 131.4 29.606 132.108 29.37 132.783 C 28.425 135.247 27.514 137.643 26.636 140.039 L 27.446 141.626 L 28.155 141.558 C 28.189 141.491 28.223 141.423 28.223 141.356 C 29.269 138.149 30.416 135.078 31.53 132.108 Z" style="fill: none; transform-box: fill-box; transform-origin: 50% 50%;" transform="matrix(0.80617, -0.591684, 0.591684, 0.80617, -0.000007, -0.000005)"/>
        <path d="M 51.538 81.501 C 51.538 81.501 51.538 81.501 51.538 81.501 C 51.538 81.501 51.538 81.501 51.538 81.501 Z" style="fill:none"/>
        <path d="M 55.499 89.969 C 54.824 90.104 54.149 90.205 53.474 90.306 C 53.474 90.306 53.474 90.306 53.474 90.306 C 53.812 90.273 54.183 90.205 54.52 90.138 C 54.858 90.104 55.195 90.036 55.499 89.969 Z" fill="currentColor" style="transform-box: fill-box; transform-origin: 50% 50%;" transform="matrix(0.80617, -0.591684, 0.591684, 0.80617, -0.000005, 0.000006)"/>
        <path d="M 55.499 89.969 C 54.824 90.104 54.149 90.205 53.474 90.306 C 53.474 90.306 53.474 90.306 53.474 90.306 C 53.812 90.273 54.183 90.205 54.52 90.138 C 54.858 90.104 55.195 90.036 55.499 89.969 Z" fill="currentColor" style="transform-box: fill-box; transform-origin: 50% 50%;" transform="matrix(0.80617, -0.591684, 0.591684, 0.80617, -0.000005, 0.000006)"/>
        <path d="M 51.335 81.045 C 51.335 81.045 51.335 81.045 51.335 81.045 C 51.301 81.045 51.301 81.045 51.335 81.045 C 51.436 81.045 51.537 81.011 51.638 81.011 C 52.077 80.944 52.516 80.876 52.921 80.775 C 52.414 80.876 51.874 80.944 51.335 81.045 Z" fill="currentColor" style="transform-box: fill-box; transform-origin: 50% 50%;" transform="matrix(0.80617, -0.591684, 0.591684, 0.80617, 0.000002, -0.000009)"/>
        <path d="M 51.335 81.045 C 51.335 81.045 51.335 81.045 51.335 81.045 C 51.301 81.045 51.301 81.045 51.335 81.045 C 51.436 81.045 51.537 81.011 51.638 81.011 C 52.077 80.944 52.516 80.876 52.921 80.775 C 52.414 80.876 51.874 80.944 51.335 81.045 Z" fill="currentColor" style="transform-box: fill-box; transform-origin: 50% 50%;" transform="matrix(0.80617, -0.591684, 0.591684, 0.80617, 0.000002, -0.000009)"/>
        <path d="M 22.284 67.08 C 23.87 64.144 25.456 61.275 27.042 58.474 C 28.696 55.572 30.383 52.771 32.104 50.037 C 32.206 49.868 32.307 49.7 32.408 49.565 C 34.096 46.898 35.783 44.334 37.504 41.87 L 32.341 32.15 C 31.969 32.623 31.564 33.095 31.159 33.601 C 29.675 35.458 28.122 37.449 26.536 39.575 C 24.747 41.971 22.925 44.502 21.035 47.168 C 19.314 49.632 17.559 52.231 15.804 54.897 C 14.319 57.192 12.834 59.52 11.349 61.917 C 11.281 62.018 11.248 62.085 11.18 62.187 L 17.896 75.45 C 19.381 72.649 20.832 69.848 22.284 67.08 Z" fill="currentColor" style="transform-box: fill-box; transform-origin: 50% 50%;" transform="matrix(0.80617, -0.591684, 0.591684, 0.80617, -0.000001, -0.000001)"/>
        <path d="M 51.959 136.801 C 51.082 139.231 50.171 141.728 49.293 144.293 C 49.293 144.327 49.259 144.361 49.259 144.394 C 49.124 144.766 48.989 145.103 48.888 145.474 C 48.281 147.196 47.774 148.748 46.559 152.258 C 48.551 153.169 50.137 155.532 51.622 158.231 C 51.453 155.43 50.306 152.798 48.112 150.773 C 57.865 151.212 66.302 148.748 70.622 141.593 C 70.994 140.952 71.365 140.277 71.702 139.568 C 69.711 142.066 67.281 143.146 62.658 142.876 C 62.658 142.876 62.624 142.876 62.624 142.876 C 62.624 142.876 62.658 142.876 62.658 142.876 C 69.441 139.838 72.85 136.902 75.853 132.076 C 76.562 130.929 77.271 129.68 77.98 128.296 C 72.04 134.405 65.155 136.126 57.899 134.81 L 52.466 135.417 C 52.297 135.89 52.128 136.329 51.959 136.801 Z" fill="currentColor" style="transform-box: fill-box; transform-origin: 50% 50%;" transform="matrix(0.80617, -0.591684, 0.591684, 0.80617, -0.000003, 0.000004)"/>
        <path d="M 26.457 134.52 C 27.639 131.482 28.854 128.411 30.069 125.306 C 31.25 122.336 32.465 119.366 33.713 116.363 C 34.962 113.359 36.245 110.356 37.527 107.352 C 38.843 104.281 40.193 101.243 41.577 98.206 C 42.927 95.202 44.344 92.199 45.728 89.229 C 46.234 88.149 46.74 87.103 47.28 86.023 C 48.158 84.2 49.069 82.378 49.98 80.555 C 50.014 80.454 50.082 80.353 50.115 80.252 L 43.467 67.022 C 43.366 67.191 43.264 67.393 43.129 67.562 C 41.577 70.127 39.991 72.726 38.472 75.392 C 36.92 78.092 35.401 80.825 33.916 83.627 C 32.667 85.989 31.452 88.351 30.237 90.748 C 30.001 91.22 29.765 91.726 29.529 92.199 C 28.077 95.202 26.727 98.139 25.546 100.94 C 24.196 104.112 23.015 107.149 21.969 110.018 C 21.294 111.908 20.653 113.73 20.079 115.485 C 19.606 116.97 19.168 118.489 18.729 119.974 C 17.717 123.484 16.873 126.994 16.164 130.504 L 22.914 143.834 C 23.791 141.438 24.736 139.042 25.647 136.578 C 25.917 135.903 26.187 135.228 26.457 134.52 Z" fill="currentColor" style="transform-box: fill-box; transform-origin: 50% 50%;" transform="matrix(0.80617, -0.591684, 0.591684, 0.80617, 0.000005, -0.000006)"/>
        <path d="M 56.63 131.595 C 55.786 135.847 55.179 140.099 54.875 144.352 C 54.875 144.487 54.841 144.655 54.841 144.79 C 52.749 141.416 47.079 138.108 47.113 138.142 C 51.163 144.014 54.234 149.819 54.673 155.523 C 52.513 155.961 49.543 155.32 46.134 154.071 C 49.712 157.345 52.378 158.256 53.424 158.492 C 50.15 158.695 46.742 160.956 43.299 163.555 C 48.328 161.496 52.412 160.686 55.314 161.361 C 50.69 174.422 46.067 188.866 41.443 204.188 C 42.861 203.783 43.704 202.805 44.177 201.522 C 44.987 198.755 50.488 180.53 59.06 156.603 C 59.296 155.928 59.566 155.253 59.802 154.544 C 59.87 154.341 59.937 154.173 60.005 153.97 C 60.916 151.473 61.861 148.908 62.84 146.275 C 63.076 145.668 63.279 145.094 63.515 144.487 C 63.515 144.487 63.515 144.453 63.515 144.453 L 56.765 131.122 C 56.698 131.291 56.664 131.426 56.63 131.595 Z" fill="currentColor" style="transform-box: fill-box; transform-origin: 50% 50%;" transform="matrix(0.80617, -0.591684, 0.591684, 0.80617, 0.000005, -0.000007)"/>
        <path d="M 50.94 69.885 C 50.737 70.29 50.569 70.662 50.366 71.067 C 49.792 72.282 49.185 73.496 48.611 74.745 C 47.97 76.095 47.329 77.479 46.654 78.896 C 46.316 79.605 45.979 80.314 45.641 81.056 C 44.629 83.25 43.616 85.511 42.57 87.84 C 41.288 90.708 40.005 93.678 38.689 96.783 C 37.44 99.719 36.158 102.79 34.875 105.929 C 33.66 108.933 32.412 112.004 31.163 115.21 C 30.049 118.045 28.936 120.981 27.788 123.985 C 27.721 124.12 27.687 124.288 27.619 124.423 C 26.506 127.393 25.358 130.464 24.211 133.603 C 24.177 133.67 24.143 133.738 24.143 133.805 L 29.577 133.198 C 29.476 133.164 29.374 133.164 29.239 133.13 C 35.753 132.321 44.392 127.461 49.961 121.453 C 52.526 118.686 54.855 115.446 57.015 111.633 C 58.634 108.798 60.119 105.659 61.571 102.149 C 62.819 99.112 64.034 95.804 65.182 92.227 C 63.697 93.003 61.976 93.577 60.086 93.982 C 59.748 94.049 59.411 94.117 59.073 94.184 C 58.736 94.252 58.398 94.286 58.027 94.353 C 58.027 94.353 58.027 94.353 58.027 94.353 C 64.102 92.025 67.915 87.536 70.683 82.001 C 69.097 83.081 66.498 84.499 63.393 85.207 C 62.988 85.309 62.549 85.376 62.111 85.444 C 62.009 85.444 61.908 85.477 61.773 85.477 C 61.773 85.477 61.773 85.477 61.773 85.477 C 61.773 85.477 61.773 85.477 61.773 85.477 C 63.866 84.6 65.654 83.621 67.207 82.44 C 67.544 82.204 67.848 81.934 68.152 81.664 C 68.624 81.259 69.063 80.82 69.502 80.381 C 69.772 80.077 70.042 79.807 70.312 79.504 C 70.919 78.795 71.493 78.019 71.999 77.175 C 72.168 76.905 72.336 76.669 72.471 76.399 C 72.674 75.994 72.876 75.623 73.045 75.251 C 73.889 73.564 74.564 72.045 75.104 70.695 C 75.374 70.02 75.61 69.413 75.813 68.839 C 75.88 68.603 75.981 68.4 76.049 68.164 C 76.251 67.523 76.454 66.949 76.589 66.443 C 76.791 65.701 76.926 65.093 76.994 64.654 C 76.791 64.823 76.555 64.992 76.285 65.127 C 74.463 66.207 71.324 67.219 68.793 67.692 L 73.788 67.152 L 68.793 67.692 C 68.759 67.692 68.725 67.692 68.692 67.725 C 68.455 67.759 68.185 67.793 67.915 67.86 C 67.949 67.827 68.017 67.827 68.05 67.793 L 50.973 69.649 C 51.007 69.784 50.973 69.852 50.94 69.885 Z" fill="currentColor" style="transform-box: fill-box; transform-origin: 50% 50%;" transform="matrix(0.80617, -0.591684, 0.591684, 0.80617, 0, -0.000007)"/>
        <path d="M 37.942 32.809 C 36.423 35.137 34.77 37.803 32.981 40.773 C 32.88 40.942 32.779 41.077 32.711 41.246 C 31.159 43.844 29.539 46.679 27.818 49.818 C 26.333 52.518 24.78 55.386 23.16 58.525 C 21.743 61.225 20.325 64.094 18.807 67.131 L 35.883 65.275 C 40.845 62.98 43.072 60.921 45.232 57.918 C 45.806 57.108 46.379 56.23 46.953 55.319 C 48.708 52.585 50.429 49.582 51.948 46.578 C 53.433 43.676 54.749 40.807 55.728 38.242 C 56.369 36.588 56.875 35.07 57.246 33.72 C 57.55 32.539 57.786 31.425 57.989 30.345 C 51.374 31.459 43.241 32.539 37.942 32.809 Z" fill="currentColor" style="transform-box: fill-box; transform-origin: 50% 50%;" transform="matrix(0.80617, -0.591684, 0.591684, 0.80617, -0.000003, 0.000009)"/>
        <path d="M 54.685 90.438 C 54.348 90.505 54.01 90.539 53.639 90.607 C 53.976 90.539 54.314 90.472 54.685 90.438 Z" fill="currentColor" style="transform-box: fill-box; transform-origin: 50% 50%;" transform="matrix(0.80617, -0.591684, 0.591684, 0.80617, -0.000003, -0.000001)"/>
        <path d="M 54.685 90.438 C 54.348 90.505 54.01 90.539 53.639 90.607 C 53.976 90.539 54.314 90.472 54.685 90.438 Z" fill="currentColor" style="transform-box: fill-box; transform-origin: 50% 50%;" transform="matrix(0.80617, -0.591684, 0.591684, 0.80617, -0.000003, -0.000001)"/>
        <path d="M 54.685 90.438 C 54.348 90.505 54.01 90.539 53.639 90.607 C 53.976 90.539 54.314 90.472 54.685 90.438 Z" fill="currentColor" style="transform-box: fill-box; transform-origin: 50% 50%;" transform="matrix(0.80617, -0.591684, 0.591684, 0.80617, -0.000003, -0.000001)"/>
        <path d="M 51.496 81.404 C 51.597 81.404 51.698 81.37 51.833 81.37 C 51.732 81.37 51.631 81.404 51.496 81.404 Z" fill="currentColor" style="transform-box: fill-box; transform-origin: 50% 50%;" transform="matrix(0.80617, -0.591684, 0.591684, 0.80617, -0.000006, 0.000003)"/>
        <path d="M 51.496 81.404 C 51.597 81.404 51.698 81.37 51.833 81.37 C 51.732 81.37 51.631 81.404 51.496 81.404 Z" fill="currentColor" style="transform-box: fill-box; transform-origin: 50% 50%;" transform="matrix(0.80617, -0.591684, 0.591684, 0.80617, -0.000006, 0.000003)"/>
        <path d="M 51.496 81.404 C 51.597 81.404 51.698 81.37 51.833 81.37 C 51.732 81.37 51.631 81.404 51.496 81.404 Z" fill="currentColor" style="transform-box: fill-box; transform-origin: 50% 50%;" transform="matrix(0.80617, -0.591684, 0.591684, 0.80617, -0.000006, 0.000003)"/>
        <path d="M -36.442 309.155 C -36.442 309.155 -36.442 309.155 -36.442 309.155 C -36.442 309.155 -36.442 309.155 -36.442 309.155 Z" fill="currentColor" style="transform-box: fill-box; transform-origin: 50% 50%;" transform="matrix(-1.981292, 0, 0.016434, -1.981224, -111.18409, 921.975464)"/>
        <path d="M -36.442 309.155 C -36.442 309.155 -36.442 309.155 -36.442 309.155 C -36.442 309.155 -36.442 309.155 -36.442 309.155 Z" fill="currentColor" style="transform-box: fill-box; transform-origin: 50% 50%;" transform="matrix(-1.981292, 0, 0.016434, -1.981224, -111.18409, 921.975464)"/>
        <path d="M -36.442 309.155 C -36.442 309.155 -36.442 309.155 -36.442 309.155 C -36.442 309.155 -36.442 309.155 -36.442 309.155 Z" fill="currentColor" style="transform-box: fill-box; transform-origin: 50% 50%;" transform="matrix(-1.981292, 0, 0.016434, -1.981224, -111.18409, 921.975464)"/>
        <path d="M 25.43 21.417 L 46.202 21.417 C 48.289 21.417 50.281 21.512 52.178 21.702 C 54.075 21.702 55.592 22.081 56.731 22.84 C 58.628 24.168 59.576 26.634 59.576 30.238 C 59.766 33.653 60.145 36.688 60.714 39.344 C 61.473 45.604 62.137 52.054 62.706 58.694 C 63.275 65.144 63.939 71.594 64.698 78.044 C 65.457 82.596 66.026 87.244 66.405 91.987 C 66.785 96.729 67.354 101.282 68.113 105.645 C 68.302 107.353 68.492 109.155 68.682 111.052 C 69.061 112.949 70.294 113.897 72.381 113.897 C 72.95 113.518 73.33 113.328 73.519 113.328 C 73.709 113.139 73.993 112.854 74.373 112.475 C 75.132 111.526 75.796 110.578 76.365 109.629 C 76.934 108.681 77.503 107.637 78.072 106.499 C 79.59 104.412 80.728 102.231 81.487 99.954 C 82.435 97.678 83.573 95.496 84.901 93.409 C 89.075 85.442 93.153 77.474 97.137 69.507 C 101.121 61.35 105.2 53.287 109.373 45.32 C 110.891 43.043 112.124 40.767 113.072 38.49 C 114.211 36.024 115.349 33.748 116.487 31.661 C 117.246 30.144 118.005 28.626 118.763 27.108 C 119.712 25.591 120.85 24.358 122.178 23.409 C 122.747 23.03 124.075 22.461 126.162 21.702 C 127.3 21.322 128.533 21.227 129.861 21.417 C 131.189 21.417 132.422 21.417 133.56 21.417 L 147.503 21.417 C 149.59 21.417 151.487 21.512 153.194 21.702 C 155.091 21.702 156.419 22.176 157.178 23.125 C 158.127 24.073 158.222 25.496 157.463 27.393 C 156.894 29.1 156.325 30.523 155.755 31.661 C 154.238 34.317 152.72 37.163 151.203 40.198 C 149.685 43.043 148.167 45.794 146.65 48.45 C 145.891 49.778 145.227 51.106 144.658 52.434 C 144.089 53.572 143.52 54.71 142.951 55.848 C 141.623 57.935 140.39 60.022 139.251 62.108 C 138.113 64.195 136.975 66.282 135.837 68.369 C 135.647 68.938 135.362 69.602 134.983 70.361 C 134.793 70.93 134.509 71.499 134.129 72.068 C 132.422 74.913 130.81 77.854 129.292 80.889 C 127.774 83.735 126.257 86.58 124.739 89.426 C 121.514 95.117 118.384 100.998 115.349 107.068 C 112.313 112.949 109.089 118.735 105.674 124.426 C 104.156 127.082 102.733 129.738 101.406 132.393 C 100.267 134.86 98.939 137.421 97.422 140.076 C 96.853 141.025 96.378 141.879 95.999 142.637 C 95.62 143.206 95.145 143.965 94.576 144.914 C 93.438 147.001 92.3 149.182 91.162 151.459 C 90.213 153.545 89.075 155.632 87.747 157.719 C 86.419 159.805 85.186 161.797 84.048 163.694 C 82.91 165.402 81.297 166.635 79.21 167.394 C 77.503 167.963 75.796 168.247 74.088 168.247 C 72.381 168.058 70.674 167.963 68.966 167.963 L 50.47 167.963 C 48.384 167.963 46.297 167.963 44.21 167.963 C 42.313 167.963 40.701 167.583 39.373 166.825 C 38.234 165.876 37.476 164.738 37.096 163.41 C 36.907 161.892 36.717 160.28 36.527 158.572 C 35.958 156.296 35.484 153.925 35.104 151.459 C 34.915 148.992 34.63 146.621 34.251 144.345 C 34.061 143.586 33.966 142.922 33.966 142.353 C 33.966 141.594 33.871 140.74 33.682 139.792 C 33.113 137.515 32.733 135.144 32.543 132.678 C 32.354 130.212 31.974 127.746 31.405 125.28 C 31.215 124.331 31.121 123.477 31.121 122.719 C 31.121 121.77 31.026 120.822 30.836 119.873 C 30.457 118.166 30.172 116.458 29.982 114.751 C 29.793 112.854 29.508 111.052 29.129 109.345 C 28.939 108.775 28.844 108.206 28.844 107.637 C 29.034 106.878 29.034 106.214 28.844 105.645 C 28.465 103.938 28.18 102.231 27.991 100.523 C 27.801 98.816 27.516 97.014 27.137 95.117 C 26.378 90.754 25.714 86.296 25.145 81.743 C 24.576 77 24.007 72.352 23.438 67.8 C 22.299 62.678 21.446 57.556 20.877 52.434 C 20.497 47.122 19.833 41.905 18.885 36.783 L 18.031 29.1 C 17.841 28.531 17.747 27.867 17.747 27.108 C 17.936 26.16 18.316 25.306 18.885 24.547 C 19.644 23.219 21.161 22.271 23.438 21.702 C 24.386 21.702 25.05 21.607 25.43 21.417 L 25.43 21.417 Z" style="fill: none; stroke: none; font-style: italic; font-variant: normal; font-weight: bold; font-stretch: normal; font-size: 100px; line-height: 125%; font-family: 'Alte Haas Grotesk'; letter-spacing: 0px; word-spacing: 0px; fill-opacity: 1;"/>
        <path d="M 148.736 15.482 C 145.53 17.39 140.186 22.735 133.849 30.483 L 139.69 41.515 C 143.774 35.637 147.973 30.369 152.172 25.865 C 152.477 25.521 152.668 25.33 152.668 25.33 C 152.515 25.521 152.325 25.674 152.172 25.865 C 150.798 27.353 146.675 32.163 140.453 41.744 C 146.446 41.439 155.646 40.217 163.165 38.92 C 165.418 26.399 160.99 20.673 160.99 20.673 C 160.99 20.673 155.34 11.55 148.736 15.482 Z" fill="currentColor" style="transform-box: fill-box; transform-origin: 50% 50%;" transform="matrix(0.989406, 0.145174, -0.145174, 0.989406, -0.000001, 0.000001)"/>
        <path d="M 131.619 76.347 C 131.657 76.347 131.695 76.347 131.733 76.309 L 130.893 76.385 C 130.855 76.424 130.779 76.424 130.741 76.462 C 131.046 76.424 131.351 76.385 131.619 76.347 Z" style="fill: none; transform-box: fill-box; transform-origin: 50% 50%;" transform="matrix(0.989406, 0.145174, -0.145174, 0.989406, -0.000001, 0.000001)"/>
        <path d="M 122.852 94.958 C 122.394 95.072 121.897 95.149 121.401 95.225 C 121.897 95.149 122.394 95.072 122.852 94.958 Z" style="fill: none; transform-box: fill-box; transform-origin: 50% 50%;" transform="matrix(0.989406, 0.145174, -0.145174, 0.989406, 0.000001, 0.000001)"/>
        <path d="M 79.997 134.825 C 80.073 134.672 80.111 134.482 80.188 134.329 C 81.486 130.932 82.745 127.649 84.005 124.404 C 85.417 120.816 86.83 117.304 88.204 113.907 C 89.654 110.357 91.105 106.883 92.517 103.562 C 94.006 100.05 95.457 96.691 96.907 93.447 C 98.09 90.813 99.236 88.255 100.381 85.774 C 100.762 84.934 101.144 84.133 101.526 83.331 C 102.289 81.728 103.015 80.163 103.74 78.636 C 104.427 77.223 105.076 75.849 105.725 74.475 C 105.954 74.017 106.183 73.559 106.374 73.139 C 106.412 73.063 106.45 72.986 106.488 72.91 L 105.763 72.986 L 105.19 71.879 C 105.152 71.994 105.076 72.108 105.038 72.223 C 104.007 74.246 102.976 76.307 101.984 78.407 C 101.411 79.59 100.839 80.812 100.228 82.033 C 98.625 85.392 97.06 88.751 95.533 92.187 C 93.968 95.622 92.441 99.096 90.952 102.532 C 89.464 105.929 88.051 109.326 86.639 112.723 C 85.226 116.121 83.852 119.48 82.516 122.839 C 81.104 126.351 79.73 129.825 78.432 133.26 C 78.126 134.024 77.821 134.825 77.554 135.589 C 76.485 138.375 75.454 141.085 74.462 143.796 L 75.378 145.59 L 76.18 145.513 C 76.218 145.437 76.256 145.361 76.256 145.284 C 77.439 141.658 78.737 138.184 79.997 134.825 Z" style="fill: none; transform-box: fill-box; transform-origin: 50% 50%;" transform="matrix(0.989406, 0.145174, -0.145174, 0.989406, 0.000001, -0.000002)"/>
        <path d="M 121.006 95.101 C 121.006 95.101 121.006 95.101 121.006 95.101 C 121.006 95.101 121.006 95.101 121.006 95.101 Z" style="fill:none"/>
        <path d="M 117.662 104.205 C 116.899 104.358 116.135 104.472 115.372 104.587 C 115.372 104.587 115.372 104.587 115.372 104.587 C 115.754 104.548 116.174 104.472 116.555 104.396 C 116.937 104.358 117.319 104.281 117.662 104.205 Z" fill="currentColor" style="transform-box: fill-box; transform-origin: 50% 50%;" transform="matrix(0.989406, 0.145174, -0.145174, 0.989406, -0.000001, -0.000001)"/>
        <path d="M 117.662 104.205 C 116.899 104.358 116.135 104.472 115.372 104.587 C 115.372 104.587 115.372 104.587 115.372 104.587 C 115.754 104.548 116.174 104.472 116.555 104.396 C 116.937 104.358 117.319 104.281 117.662 104.205 Z" fill="currentColor" style="transform-box: fill-box; transform-origin: 50% 50%;" transform="matrix(0.989406, 0.145174, -0.145174, 0.989406, -0.000001, -0.000001)"/>
        <path d="M 121.057 95.236 C 121.057 95.236 121.057 95.236 121.057 95.236 C 121.019 95.236 121.019 95.236 121.057 95.236 C 121.171 95.236 121.286 95.198 121.4 95.198 C 121.897 95.121 122.393 95.045 122.851 94.931 C 122.278 95.045 121.667 95.121 121.057 95.236 Z" fill="currentColor" style="transform-box: fill-box; transform-origin: 50% 50%;" transform="matrix(0.989406, 0.145174, -0.145174, 0.989406, -0.000001, 0)"/>
        <path d="M 121.057 95.236 C 121.057 95.236 121.057 95.236 121.057 95.236 C 121.019 95.236 121.019 95.236 121.057 95.236 C 121.171 95.236 121.286 95.198 121.4 95.198 C 121.897 95.121 122.393 95.045 122.851 94.931 C 122.278 95.045 121.667 95.121 121.057 95.236 Z" fill="currentColor" style="transform-box: fill-box; transform-origin: 50% 50%;" transform="matrix(0.989406, 0.145174, -0.145174, 0.989406, -0.000001, 0)"/>
        <path d="M 118.793 66.214 C 120.587 62.893 122.381 59.648 124.175 56.48 C 126.046 53.197 127.954 50.029 129.901 46.937 C 130.015 46.746 130.13 46.555 130.244 46.403 C 132.153 43.387 134.062 40.486 136.008 37.699 L 130.168 26.706 C 129.748 27.24 129.29 27.775 128.832 28.347 C 127.153 30.447 125.397 32.699 123.603 35.104 C 121.579 37.814 119.518 40.677 117.38 43.692 C 115.434 46.479 113.449 49.418 111.464 52.434 C 109.784 55.029 108.105 57.663 106.425 60.374 C 106.349 60.488 106.311 60.564 106.234 60.679 L 113.83 75.681 C 115.51 72.512 117.151 69.344 118.793 66.214 Z" fill="currentColor" style="transform-box: fill-box; transform-origin: 50% 50%;" transform="matrix(0.989406, 0.145174, -0.145174, 0.989406, 0.000002, 0)"/>
        <path d="M 68.911 146.037 C 67.919 148.785 66.888 151.61 65.895 154.511 C 65.895 154.549 65.857 154.588 65.857 154.626 C 65.705 155.046 65.552 155.427 65.437 155.847 C 64.75 157.794 64.178 159.55 62.804 163.52 C 65.056 164.551 66.85 167.223 68.529 170.276 C 68.339 167.108 67.041 164.131 64.559 161.84 C 75.591 162.337 85.134 159.55 90.02 151.458 C 90.44 150.732 90.86 149.969 91.242 149.167 C 88.99 151.992 86.241 153.213 81.012 152.908 C 81.012 152.908 80.973 152.908 80.973 152.908 C 80.973 152.908 81.012 152.908 81.012 152.908 C 88.684 149.473 92.54 146.152 95.937 140.693 C 96.739 139.395 97.54 137.983 98.342 136.418 C 91.623 143.327 83.836 145.274 75.629 143.785 L 69.484 144.472 C 69.293 145.006 69.102 145.503 68.911 146.037 Z" fill="currentColor" style="transform-box: fill-box; transform-origin: 50% 50%;" transform="matrix(0.989406, 0.145174, -0.145174, 0.989406, -0.000002, 0.000001)"/>
        <path d="M 79.626 132.649 C 80.962 129.213 82.336 125.74 83.71 122.228 C 85.046 118.869 86.42 115.51 87.833 112.112 C 89.245 108.715 90.696 105.318 92.146 101.92 C 93.635 98.447 95.162 95.011 96.727 91.576 C 98.254 88.178 99.857 84.781 101.422 81.422 C 101.995 80.2 102.567 79.017 103.178 77.796 C 104.17 75.734 105.201 73.673 106.232 71.612 C 106.27 71.497 106.346 71.383 106.384 71.268 L 98.864 56.305 C 98.75 56.496 98.635 56.725 98.483 56.915 C 96.727 59.816 94.933 62.756 93.215 65.771 C 91.459 68.825 89.741 71.917 88.062 75.085 C 86.649 77.757 85.275 80.429 83.901 83.14 C 83.634 83.674 83.367 84.247 83.099 84.781 C 81.458 88.178 79.931 91.499 78.595 94.668 C 77.068 98.256 75.732 101.691 74.549 104.936 C 73.785 107.074 73.06 109.135 72.411 111.12 C 71.877 112.799 71.381 114.517 70.884 116.197 C 69.739 120.167 68.785 124.136 67.983 128.106 L 75.618 143.184 C 76.61 140.474 77.679 137.764 78.71 134.977 C 79.015 134.214 79.32 133.45 79.626 132.649 Z" fill="currentColor" style="transform-box: fill-box; transform-origin: 50% 50%;" transform="matrix(0.989406, 0.145174, -0.145174, 0.989406, -0.000002, -0.000001)"/>
        <path d="M 58.007 124.417 C 57.053 129.227 56.365 134.036 56.022 138.846 C 56.022 138.999 55.984 139.189 55.984 139.342 C 53.617 135.525 47.204 131.784 47.242 131.822 C 51.823 138.464 55.297 145.03 55.793 151.481 C 53.35 151.977 49.991 151.252 46.135 149.84 C 50.182 153.542 53.197 154.573 54.381 154.84 C 50.678 155.069 46.822 157.627 42.929 160.566 C 48.617 158.237 53.235 157.321 56.518 158.085 C 51.289 172.857 46.059 189.195 40.829 206.525 C 42.433 206.067 43.387 204.96 43.921 203.509 C 44.838 200.379 51.06 179.766 60.755 152.702 C 61.022 151.939 61.328 151.176 61.595 150.374 C 61.671 150.145 61.748 149.954 61.824 149.725 C 62.855 146.9 63.924 143.999 65.031 141.022 C 65.298 140.335 65.527 139.686 65.794 138.999 C 65.794 138.999 65.794 138.96 65.794 138.96 L 58.16 123.882 C 58.083 124.073 58.045 124.226 58.007 124.417 Z" fill="currentColor" style="transform-box: fill-box; transform-origin: 50% 50%;" transform="matrix(0.989406, 0.145174, -0.145174, 0.989406, 0.000001, -0.000001)"/>
        <path d="M 106.559 75.412 C 106.33 75.87 106.139 76.29 105.91 76.748 C 105.261 78.122 104.574 79.496 103.925 80.908 C 103.2 82.435 102.475 84 101.711 85.604 C 101.329 86.405 100.948 87.207 100.566 88.047 C 99.421 90.528 98.276 93.085 97.092 95.719 C 95.642 98.964 94.191 102.323 92.702 105.835 C 91.29 109.156 89.84 112.629 88.389 116.179 C 87.015 119.577 85.602 123.05 84.19 126.677 C 82.93 129.883 81.671 133.204 80.373 136.601 C 80.297 136.754 80.258 136.945 80.182 137.098 C 78.922 140.457 77.624 143.931 76.327 147.481 C 76.288 147.557 76.25 147.633 76.25 147.71 L 82.396 147.022 C 82.281 146.984 82.167 146.984 82.014 146.946 C 89.381 146.03 99.154 140.533 105.452 133.739 C 108.353 130.608 110.987 126.944 113.43 122.631 C 115.262 119.424 116.942 115.874 118.583 111.904 C 119.996 108.469 121.37 104.728 122.668 100.682 C 120.988 101.56 119.041 102.208 116.904 102.666 C 116.522 102.743 116.14 102.819 115.758 102.896 C 115.377 102.972 114.995 103.01 114.575 103.086 C 114.575 103.086 114.575 103.086 114.575 103.086 C 121.446 100.453 125.76 95.376 128.89 89.115 C 127.096 90.337 124.156 91.94 120.644 92.742 C 120.186 92.856 119.69 92.933 119.194 93.009 C 119.079 93.009 118.965 93.047 118.812 93.047 C 118.812 93.047 118.812 93.047 118.812 93.047 C 118.812 93.047 118.812 93.047 118.812 93.047 C 121.179 92.055 123.202 90.948 124.958 89.612 C 125.34 89.344 125.683 89.039 126.027 88.734 C 126.561 88.276 127.057 87.779 127.554 87.283 C 127.859 86.94 128.164 86.634 128.47 86.291 C 129.157 85.489 129.806 84.611 130.378 83.657 C 130.569 83.351 130.76 83.084 130.913 82.779 C 131.142 82.321 131.371 81.901 131.562 81.481 C 132.516 79.572 133.279 77.855 133.89 76.328 C 134.196 75.564 134.463 74.877 134.692 74.228 C 134.768 73.961 134.883 73.732 134.959 73.465 C 135.188 72.74 135.417 72.091 135.57 71.518 C 135.799 70.678 135.951 69.991 136.028 69.495 C 135.799 69.686 135.532 69.877 135.226 70.029 C 133.165 71.251 129.615 72.396 126.752 72.93 L 132.401 72.32 L 126.752 72.93 C 126.714 72.93 126.676 72.93 126.637 72.969 C 126.37 73.007 126.065 73.045 125.76 73.121 C 125.798 73.083 125.874 73.083 125.912 73.045 L 106.597 75.144 C 106.635 75.297 106.597 75.373 106.559 75.412 Z" fill="currentColor" style="transform-box: fill-box; transform-origin: 50% 50%;" transform="matrix(0.989406, 0.145174, -0.145174, 0.989406, 0.000001, 0.000001)"/>
        <path d="M 135.943 40.268 C 134.225 42.902 132.355 45.918 130.332 49.277 C 130.217 49.468 130.103 49.62 130.026 49.811 C 128.27 52.751 126.438 55.957 124.491 59.507 C 122.812 62.561 121.056 65.805 119.224 69.355 C 117.62 72.409 116.017 75.654 114.299 79.089 L 133.614 76.99 C 139.226 74.394 141.745 72.066 144.188 68.668 C 144.837 67.752 145.486 66.76 146.135 65.729 C 148.12 62.637 150.067 59.24 151.784 55.842 C 153.464 52.56 154.953 49.315 156.06 46.414 C 156.785 44.544 157.357 42.826 157.777 41.299 C 158.121 39.963 158.388 38.703 158.617 37.482 C 151.135 38.741 141.936 39.963 135.943 40.268 Z" fill="currentColor" style="transform-box: fill-box; transform-origin: 50% 50%;" transform="matrix(0.989406, 0.145174, -0.145174, 0.989406, -0.000001, 0.000002)"/>
        <path d="M 116.542 104.352 C 116.16 104.429 115.778 104.467 115.359 104.543 C 115.74 104.467 116.122 104.39 116.542 104.352 Z" fill="currentColor" style="transform-box: fill-box; transform-origin: 50% 50%;" transform="matrix(0.989406, 0.145174, -0.145174, 0.989406, 0, 0.000001)"/>
        <path d="M 116.542 104.352 C 116.16 104.429 115.778 104.467 115.359 104.543 C 115.74 104.467 116.122 104.39 116.542 104.352 Z" fill="currentColor" style="transform-box: fill-box; transform-origin: 50% 50%;" transform="matrix(0.989406, 0.145174, -0.145174, 0.989406, 0, 0.000001)"/>
        <path d="M 116.542 104.352 C 116.16 104.429 115.778 104.467 115.359 104.543 C 115.74 104.467 116.122 104.39 116.542 104.352 Z" fill="currentColor" style="transform-box: fill-box; transform-origin: 50% 50%;" transform="matrix(0.989406, 0.145174, -0.145174, 0.989406, 0, 0.000001)"/>
        <path d="M 121.007 95.128 C 121.121 95.128 121.236 95.09 121.389 95.09 C 121.274 95.09 121.16 95.128 121.007 95.128 Z" fill="currentColor" style="transform-box: fill-box; transform-origin: 50% 50%;" transform="matrix(0.989406, 0.145174, -0.145174, 0.989406, 0.000002, -0.000001)"/>
        <path d="M 121.007 95.128 C 121.121 95.128 121.236 95.09 121.389 95.09 C 121.274 95.09 121.16 95.128 121.007 95.128 Z" fill="currentColor" style="transform-box: fill-box; transform-origin: 50% 50%;" transform="matrix(0.989406, 0.145174, -0.145174, 0.989406, 0.000002, -0.000001)"/>
        <path d="M 121.007 95.128 C 121.121 95.128 121.236 95.09 121.389 95.09 C 121.274 95.09 121.16 95.128 121.007 95.128 Z" fill="currentColor" style="transform-box: fill-box; transform-origin: 50% 50%;" transform="matrix(0.989406, 0.145174, -0.145174, 0.989406, 0.000002, -0.000001)"/>
        <path d="M -526.343 93.096 C -526.343 93.096 -526.343 93.096 -526.343 93.096 C -526.343 93.096 -526.343 93.096 -526.343 93.096 Z" fill="currentColor" style="transform-box: fill-box; transform-origin: 50% 50%;" transform="matrix(-2.028232, 0, 0.001053, 1.002084, -1594.082153, 0.9022)"/>
        <path d="M -526.343 93.096 C -526.343 93.096 -526.343 93.096 -526.343 93.096 C -526.343 93.096 -526.343 93.096 -526.343 93.096 Z" fill="currentColor" style="transform-box: fill-box; transform-origin: 50% 50%;" transform="matrix(-2.028232, 0, 0.001053, 1.002084, -1594.082153, 0.9022)"/>
        <path d="M -526.343 93.096 C -526.343 93.096 -526.343 93.096 -526.343 93.096 C -526.343 93.096 -526.343 93.096 -526.343 93.096 Z" fill="currentColor" style="transform-box: fill-box; transform-origin: 50% 50%;" transform="matrix(-2.028232, 0, 0.001053, 1.002084, -1594.082153, 0.9022)"/>
    </g>
</svg>